<?xml version="1.0" encoding="UTF-8"?>
<svg id="Layer_2" data-name="Layer 2" xmlns="http://www.w3.org/2000/svg" viewBox="0 0 81.82 83.08">
  <defs>
    <style>
      .cls-1 {
        fill: #231f20;
      }

      .cls-1, .cls-2 {
        stroke: #231f20;
        stroke-miterlimit: 10;
      }

      .cls-2 {
        fill: none;
      }
    </style>
  </defs>
  <g id="Layer_1-2" data-name="Layer 1">
    <path class="cls-1" d="m81.32,11.6c0-3.31-1.99-6.3-5.05-7.57-3.67-1.52-8.7-2.98-14.76-3.04-6.41-.06-11.71,1.45-15.53,3.03-3.07,1.27-5.07,4.26-5.07,7.58v30.25h40.41V11.6Z"/>
    <polygon class="cls-2" points="40.59 41.62 81.32 41.62 81.32 81.88 40.59 41.62"/>
    <polygon class="cls-2" points=".5 1.21 .5 41.62 40.59 41.62 .5 1.21"/>
    <path class="cls-1" d="m40.91,71.87c0,3.31-1.99,6.3-5.05,7.57-3.67,1.52-8.7,2.98-14.76,3.04-6.41.06-11.71-1.45-15.53-3.03-3.07-1.27-5.07-4.26-5.07-7.58v-30.25h40.41v30.25Z"/>
  </g>
</svg>